<svg xmlns="http://www.w3.org/2000/svg" version="1.1" xmlns:xlink="http://www.w3.org/1999/xlink" xmlns:svgjs="http://svgjs.dev/svgjs" width="1000" height="1000" viewBox="0 0 1000 1000"><rect width="1000" height="1000" fill="#ffffff"></rect><g transform="matrix(0.7,0,0,0.7,149.84897959183667,150.19913061224486)"><svg viewBox="0 0 343 343" data-background-color="#0093fb" preserveAspectRatio="xMidYMid meet" height="999" width="1000" xmlns="http://www.w3.org/2000/svg" xmlns:xlink="http://www.w3.org/1999/xlink"><g id="tight-bounds" transform="matrix(1,0,0,1,0.0740000000000407,0.07400000000001228)"><svg viewBox="0 0 342.85155851775386 342.85155851775386" height="342.85155851775386" width="342.85155851775386"><g><svg></svg></g><g><svg viewBox="0 0 342.85155851775386 342.85155851775386" height="342.85155851775386" width="342.85155851775386"><g><path d="M0 171.426c0-94.676 76.75-171.426 171.426-171.426 94.676 0 171.426 76.75 171.426 171.426 0 94.676-76.75 171.426-171.426 171.426-94.676 0-171.426-76.75-171.426-171.426zM171.426 339.407c92.773 0 167.981-75.208 167.981-167.981 0-92.773-75.208-167.981-167.981-167.981-92.773 0-167.981 75.208-167.981 167.981 0 92.773 75.208 167.981 167.981 167.981z" data-fill-palette-color="tertiary" fill="#000000" stroke="transparent"></path><ellipse rx="164.56874808852186" ry="164.56874808852186" cx="171.42577925887693" cy="171.42577925887693" fill="#000000" stroke="transparent" stroke-width="0" fill-opacity="1" data-fill-palette-color="tertiary"></ellipse></g><g transform="matrix(1,0,0,1,64.84655864529837,121.42042538178806)"><svg viewBox="0 0 213.1584412271571 100.01070775417773" height="100.01070775417773" width="213.1584412271571"><g><svg viewBox="0 0 213.1584412271571 100.01070775417773" height="100.01070775417773" width="213.1584412271571"><g><svg viewBox="0 0 213.1584412271571 100.01070775417773" height="100.01070775417773" width="213.1584412271571"><g transform="matrix(1,0,0,1,0,61.81062962268814)"><svg viewBox="0 0 213.1584412271571 38.20007813148958" height="38.20007813148958" width="213.1584412271571"><g id="textblocktransform"><svg viewBox="0 0 213.1584412271571 38.20007813148958" height="38.20007813148958" width="213.1584412271571" id="textblock"><g><svg viewBox="0 0 213.1584412271571 38.20007813148958" height="38.20007813148958" width="213.1584412271571"><g transform="matrix(1,0,0,1,0,0)"><svg width="213.1584412271571" viewBox="4.25 -37.45 212.58 38.1" height="38.20007813148958" data-palette-color="#0093fb"><path d="M8.9 0L4.25 0 4.25-34.4 20.95-34.4 20.45-30.8 8.9-30.8 8.9-18.8 18.9-18.8 18.9-15.2 8.9-15.2 8.9 0ZM35.1-26.95Q40.15-26.95 42.95-23.4 45.75-19.85 45.75-13.2L45.75-13.2Q45.75-6.8 42.9-3.08 40.05 0.65 35.05 0.65L35.05 0.65Q30 0.65 27.17-3 24.35-6.65 24.35-13.15L24.35-13.15Q24.35-19.7 27.2-23.33 30.05-26.95 35.1-26.95L35.1-26.95ZM35.1-23.35Q32.15-23.35 30.6-20.88 29.05-18.4 29.05-13.15L29.05-13.15Q29.05-2.9 35.05-2.9L35.05-2.9Q41.05-2.9 41.05-13.2L41.05-13.2Q41.05-18.45 39.55-20.9 38.05-23.35 35.1-23.35L35.1-23.35ZM61.4-26.95Q63.5-26.95 65.25-26.25 67-25.55 68.6-24.1L68.6-24.1 66.6-21.4Q65.4-22.35 64.2-22.83 63-23.3 61.6-23.3L61.6-23.3Q58.65-23.3 57.02-20.8 55.4-18.3 55.4-13L55.4-13Q55.4-3.1 61.6-3.1L61.6-3.1Q63-3.1 64.15-3.58 65.3-4.05 66.6-5L66.6-5 68.7-2.25Q65.5 0.65 61.45 0.65L61.45 0.65Q56.4 0.65 53.52-2.85 50.65-6.35 50.65-12.95L50.65-12.95Q50.65-17.25 51.97-20.4 53.3-23.55 55.72-25.25 58.15-26.95 61.4-26.95L61.4-26.95ZM91.69-26.3L91.69 0 87.79 0 87.54-3.95Q84.79 0.65 80.19 0.65L80.19 0.65Q77.04 0.65 75.24-1.4 73.44-3.45 73.44-6.95L73.44-6.95 73.44-26.3 77.94-26.3 77.94-7.35Q77.94-5.05 78.82-3.98 79.69-2.9 81.44-2.9L81.44-2.9Q84.79-2.9 87.19-7.3L87.19-7.3 87.19-26.3 91.69-26.3ZM106.59-26.95Q111.14-26.95 114.69-23.95L114.69-23.95 112.79-21.3Q111.19-22.4 109.79-22.95 108.39-23.5 106.84-23.5L106.84-23.5Q104.79-23.5 103.62-22.53 102.44-21.55 102.44-19.85L102.44-19.85Q102.44-18.2 103.57-17.25 104.69-16.3 107.84-15.3L107.84-15.3Q111.79-14.05 113.59-12.25 115.39-10.45 115.39-7.3L115.39-7.3Q115.39-3.6 112.69-1.48 109.99 0.65 105.94 0.65L105.94 0.65Q100.59 0.65 96.89-2.9L96.89-2.9 99.19-5.4Q102.34-2.85 105.84-2.85L105.84-2.85Q108.04-2.85 109.39-3.95 110.74-5.05 110.74-7L110.74-7Q110.74-8.4 110.27-9.25 109.79-10.1 108.57-10.78 107.34-11.45 104.99-12.2L104.99-12.2Q101.24-13.45 99.59-15.2 97.94-16.95 97.94-19.65L97.94-19.65Q97.94-21.75 99.04-23.4 100.14-25.05 102.09-26 104.04-26.95 106.59-26.95L106.59-26.95ZM144.64-26.3L148.89-26.3 143.49 0 137.79 0 133.49-22.2 129.24 0 123.54 0 118.04-26.3 122.49-26.3 126.59-3.4 131.19-26.3 136.04-26.3 140.49-3.35 144.64-26.3ZM163.04-26.95Q168.09-26.95 170.89-23.4 173.69-19.85 173.69-13.2L173.69-13.2Q173.69-6.8 170.84-3.08 167.99 0.65 162.99 0.65L162.99 0.65Q157.94 0.65 155.11-3 152.29-6.65 152.29-13.15L152.29-13.15Q152.29-19.7 155.14-23.33 157.99-26.95 163.04-26.95L163.04-26.95ZM163.04-23.35Q160.09-23.35 158.54-20.88 156.99-18.4 156.99-13.15L156.99-13.15Q156.99-2.9 162.99-2.9L162.99-2.9Q168.99-2.9 168.99-13.2L168.99-13.2Q168.99-18.45 167.49-20.9 165.99-23.35 163.04-23.35L163.04-23.35ZM190.98-26.9Q192.28-26.9 193.23-26.6L193.23-26.6 192.48-22.25Q191.53-22.55 190.43-22.55L190.43-22.55Q188.23-22.55 186.86-20.8 185.48-19.05 184.68-15.45L184.68-15.45 184.68 0 180.18 0 180.18-26.3 184.08-26.3 184.43-21.1Q186.38-26.9 190.98-26.9L190.98-26.9ZM197.63-36.95L202.13-37.45 202.13 0 197.63 0 197.63-36.95ZM211.28-26.3L215.98-26.3 207.08-14.6 216.83 0 211.83 0 202.38-14.4 211.28-26.3Z" opacity="1" transform="matrix(1,0,0,1,0,0)" fill="#ffffff" class="wordmark-text-0" data-fill-palette-color="quaternary" id="text-0"></path></svg></g></svg></g></svg></g></svg></g><g transform="matrix(1,0,0,1,79.82000251516007,0)"><svg viewBox="0 0 53.51843619683699 52.79250797771861" height="52.79250797771861" width="53.51843619683699"><g><svg xmlns="http://www.w3.org/2000/svg" xmlns:xlink="http://www.w3.org/1999/xlink" version="1.1" x="0" y="0" viewBox="18.964051988446975 19.425051988446974 62.071896023106056 61.22994801155303" enable-background="new 0 0 100 100" xml:space="preserve" height="52.79250797771861" width="53.51843619683699" class="icon-icon-0" data-fill-palette-color="quaternary" id="icon-0"><path d="M36.688 21.29c-1.381 0-2.5 1.119-2.5 2.5v7.155l-10.97-10.801c-0.984-0.969-2.565-0.957-3.535 0.027-0.969 0.983-0.957 2.566 0.027 3.535l10.875 10.708h-7.21c-1.381 0-2.5 1.119-2.5 2.5s1.119 2.5 2.5 2.5h13.312c1.355 0 2.5-1.145 2.5-2.5V23.79C39.188 22.409 38.068 21.29 36.688 21.29z" fill="#ffffff" data-fill-palette-color="quaternary"></path><path d="M69.415 65.665h7.21c1.381 0 2.5-1.119 2.5-2.5s-1.119-2.5-2.5-2.5H63.312c-1.356 0-2.5 1.145-2.5 2.5V76.29c0 1.381 1.119 2.5 2.5 2.5s2.5-1.119 2.5-2.5v-7.155l10.97 10.801c0.487 0.479 1.12 0.719 1.754 0.719 0.646 0 1.292-0.249 1.781-0.746 0.969-0.983 0.957-2.566-0.027-3.535L69.415 65.665z" fill="#ffffff" data-fill-palette-color="quaternary"></path><path d="M39.14 62.685c-0.236-1.152-1.269-2.02-2.452-2.02H23.375c-1.381 0-2.5 1.119-2.5 2.5s1.119 2.5 2.5 2.5h7.21L19.71 76.373c-0.984 0.969-0.996 2.552-0.027 3.535 0.489 0.497 1.135 0.746 1.781 0.746 0.634 0 1.268-0.239 1.754-0.719l10.97-10.801v7.155c0 1.381 1.119 2.5 2.5 2.5s2.5-1.119 2.5-2.5V63.165C39.171 63.005 39.161 62.799 39.14 62.685z" fill="#ffffff" data-fill-palette-color="quaternary"></path><path d="M63.312 39.415h13.312c1.381 0 2.5-1.119 2.5-2.5s-1.119-2.5-2.5-2.5h-7.21L80.29 23.707c0.984-0.969 0.996-2.552 0.027-3.535-0.969-0.984-2.553-0.996-3.535-0.027l-10.97 10.801V23.79c0-1.381-1.119-2.5-2.5-2.5s-2.5 1.119-2.5 2.5v13.125c0.016 0.16 0.023 0.321 0.048 0.48C61.036 38.558 62.129 39.415 63.312 39.415z" fill="#ffffff" data-fill-palette-color="quaternary"></path><circle cx="50.001" cy="50" r="2.7" fill="#ffffff" data-fill-palette-color="quaternary"></circle></svg></g></svg></g><g></g></svg></g></svg></g></svg></g></svg></g><defs></defs></svg><rect width="342.85155851775386" height="342.85155851775386" fill="none" stroke="none" visibility="hidden"></rect></g></svg></g></svg>